<svg width="13" height="11" viewBox="0 0 13 11" fill="none" xmlns="http://www.w3.org/2000/svg">
<path fill-rule="evenodd" clip-rule="evenodd" d="M5.70555 0.529505C6.14456 -0.177344 6.85737 -0.175659 7.29533 0.529505L12.7371 9.2914C13.3232 10.235 12.8963 11 11.7842 11H1.21672C0.104334 11 -0.324221 10.2381 0.263741 9.2914L5.70555 0.529505ZM6.50063 7.485C6.77929 7.485 7.0052 7.25751 7.0052 6.98435V3.9685C7.0052 3.692 6.78124 3.46785 6.50063 3.46785C6.22196 3.46785 5.99606 3.69534 5.99606 3.9685V6.98435C5.99606 7.26085 6.22002 7.485 6.50063 7.485ZM6.50063 9.49357C6.77929 9.49357 7.0052 9.26875 7.0052 8.99143C7.0052 8.7141 6.77929 8.48928 6.50063 8.48928C6.22196 8.48928 5.99606 8.7141 5.99606 8.99143C5.99606 9.26875 6.22196 9.49357 6.50063 9.49357Z" fill="#FF6767"/>
</svg>
