<svg width="51" height="51" viewBox="0 0 51 51" fill="none" xmlns="http://www.w3.org/2000/svg">
<path d="M44.6939 22.7617H44.9857L44.941 22.4734C43.4808 13.0569 35.3196 5.82617 25.5 5.82617C15.6804 5.82617 7.51924 13.0569 6.05902 22.4734L6.01431 22.7617H6.30607H11.4876C14.8387 22.7617 18.0272 21.4172 20.2337 19.0658L20.2337 19.0658C23.0836 16.0279 27.9166 16.0288 30.7663 19.0659L30.9486 18.8948L30.7663 19.0659C32.9728 21.4172 36.1613 22.7617 39.5123 22.7617H44.6939ZM7.32163 32.3492L7.08878 32.4405L7.18025 32.6733C9.41099 38.351 14.2079 42.7487 20.1366 44.4307L20.3435 44.4894L20.4325 44.2936C20.7584 43.5764 20.9928 42.8178 21.1261 42.0351H21.1313L21.1633 41.8223C22.0068 36.216 17.6521 31.2266 12.0527 31.2266C10.3077 31.2266 9.03509 31.677 7.32163 32.3492ZM30.5688 44.2933L30.6578 44.489L30.8646 44.4303C36.7927 42.7481 41.5891 38.3506 43.8197 32.6735L43.9111 32.4406L43.6783 32.3493C42.6063 31.9287 41.7932 31.6553 41.1378 31.4887L41.0762 31.731L41.1378 31.4887C34.8823 29.8989 28.8541 35.2907 29.8367 41.8223L29.8687 42.0351H29.8739C30.0043 42.8003 30.2347 43.5588 30.5688 44.2933ZM26.7441 26.9941C26.7441 27.6813 26.1871 28.2383 25.5 28.2383C24.8129 28.2383 24.2559 27.6813 24.2559 26.9941C24.2559 26.307 24.8129 25.75 25.5 25.75C26.1871 25.75 26.7441 26.307 26.7441 26.9941ZM0.25 25.5C0.25 11.598 11.5973 0.25 25.5 0.25C39.402 0.25 50.75 11.5973 50.75 25.5C50.75 39.402 39.4029 50.75 25.5 50.75C11.598 50.75 0.25 39.403 0.25 25.5ZM20.7676 26.9941C20.7676 29.6039 22.8904 31.7266 25.5 31.7266C28.1098 31.7266 30.2324 29.6039 30.2324 26.9941C30.2324 24.3844 28.1098 22.2617 25.5 22.2617C22.8904 22.2617 20.7676 24.3844 20.7676 26.9941Z" stroke="black" stroke-width="0.5"/>
<path d="M44.6939 22.7617H44.9857L44.941 22.4734C43.4808 13.0569 35.3196 5.82617 25.5 5.82617C15.6804 5.82617 7.51924 13.0569 6.05902 22.4734L6.01431 22.7617H6.30607H11.4876C14.8387 22.7617 18.0272 21.4172 20.2337 19.0658L20.2337 19.0658C23.0836 16.0279 27.9166 16.0288 30.7663 19.0659L30.9486 18.8948L30.7663 19.0659C32.9728 21.4172 36.1613 22.7617 39.5123 22.7617H44.6939ZM7.32163 32.3492L7.08878 32.4405L7.18025 32.6733C9.41099 38.351 14.2079 42.7487 20.1366 44.4307L20.3435 44.4894L20.4325 44.2936C20.7584 43.5764 20.9928 42.8178 21.1261 42.0351H21.1313L21.1633 41.8223C22.0068 36.216 17.6521 31.2266 12.0527 31.2266C10.3077 31.2266 9.03509 31.677 7.32163 32.3492ZM30.5688 44.2933L30.6578 44.489L30.8646 44.4303C36.7927 42.7481 41.5891 38.3506 43.8197 32.6735L43.9111 32.4406L43.6783 32.3493C42.6063 31.9287 41.7932 31.6553 41.1378 31.4887L41.0762 31.731L41.1378 31.4887C34.8823 29.8989 28.8541 35.2907 29.8367 41.8223L29.8687 42.0351H29.8739C30.0043 42.8003 30.2347 43.5588 30.5688 44.2933ZM26.7441 26.9941C26.7441 27.6813 26.1871 28.2383 25.5 28.2383C24.8129 28.2383 24.2559 27.6813 24.2559 26.9941C24.2559 26.307 24.8129 25.75 25.5 25.75C26.1871 25.75 26.7441 26.307 26.7441 26.9941ZM0.25 25.5C0.25 11.598 11.5973 0.25 25.5 0.25C39.402 0.25 50.75 11.5973 50.75 25.5C50.75 39.402 39.4029 50.75 25.5 50.75C11.598 50.75 0.25 39.403 0.25 25.5ZM20.7676 26.9941C20.7676 29.6039 22.8904 31.7266 25.5 31.7266C28.1098 31.7266 30.2324 29.6039 30.2324 26.9941C30.2324 24.3844 28.1098 22.2617 25.5 22.2617C22.8904 22.2617 20.7676 24.3844 20.7676 26.9941Z" stroke="white" stroke-width="0.5"/>
</svg>
