<svg width="14" height="14" viewBox="0 0 14 14" fill="none" xmlns="http://www.w3.org/2000/svg">
<circle cx="7" cy="7" r="6.75" stroke="black" stroke-width="0.5"/>
<circle cx="7" cy="7" r="6.75" stroke="white" stroke-width="0.5"/>
<path d="M6.18945 4.12988C6.18945 3.64486 6.45964 3.40234 7 3.40234C7.54036 3.40234 7.81055 3.64486 7.81055 4.12988C7.81055 4.361 7.74219 4.54167 7.60547 4.67188C7.47201 4.79883 7.27018 4.8623 7 4.8623C6.45964 4.8623 6.18945 4.61816 6.18945 4.12988ZM7.74219 11H6.25293V5.54102H7.74219V11Z" fill="black"/>
<path d="M6.18945 4.12988C6.18945 3.64486 6.45964 3.40234 7 3.40234C7.54036 3.40234 7.81055 3.64486 7.81055 4.12988C7.81055 4.361 7.74219 4.54167 7.60547 4.67188C7.47201 4.79883 7.27018 4.8623 7 4.8623C6.45964 4.8623 6.18945 4.61816 6.18945 4.12988ZM7.74219 11H6.25293V5.54102H7.74219V11Z" fill="white"/>
</svg>
