<svg width="55" height="37" viewBox="0 0 55 37" fill="none" xmlns="http://www.w3.org/2000/svg">
<path d="M18.3229 13.298C18.3415 16.1861 15.9598 18.6062 13.0853 18.6186C10.2187 18.6309 7.82695 16.2284 7.81695 13.3311M18.3229 13.298L8.06695 13.3303M18.3229 13.298C18.3095 10.4002 15.9192 7.99738 13.0532 8.01312M18.3229 13.298L13.0546 8.26312M7.81695 13.3311L8.06695 13.3303M7.81695 13.3311C7.81695 13.3312 7.81695 13.3313 7.81695 13.3313L8.06695 13.3303M7.81695 13.3311C7.80483 10.4427 10.1795 8.02672 13.0532 8.01312M8.06695 13.3303C8.0553 10.578 10.3204 8.27595 13.0546 8.26312M13.0532 8.01312L13.0546 8.26312M13.0532 8.01312C13.0533 8.01312 13.0533 8.01312 13.0534 8.01312L13.0546 8.26312M54.75 6.34155V6.3417V6.38919V6.43668V6.48417V6.53166V6.57914V6.62663V6.67412V6.72161V6.7691V6.81659V6.86408V6.91157V6.95906V7.00655V7.05404V7.10153V7.14902V7.19651V7.244V7.29149V7.33898V7.38647V7.43396V7.48145V7.52894V7.57643V7.62392V7.67141V7.7189V7.76639V7.81388V7.86137V7.90886V7.95635V8.00384V8.05133V8.09882V8.14631V8.1938V8.2413V8.28879V8.33628V8.38377V8.43126V8.47875V8.52624V8.57373V8.62122V8.66871V8.71621V8.7637V8.81119V8.85868V8.90617V8.95366V9.00115V9.04865V9.09614V9.14363V9.19112V9.23861V9.2861V9.3336V9.38109V9.42858V9.47607V9.52356V9.57106V9.61855V9.66604V9.71353V9.76103V9.80852V9.85601V9.9035V9.951V9.99849V10.046V10.0935V10.141V10.1885V10.236V10.2834V10.3309V10.3784V10.4259V10.4734V10.5209V10.5684V10.6159V10.6634V10.7109V10.7584V10.8059V10.8534V10.9009V10.9484V10.9959V11.0433V11.0908V11.1383V11.1858V11.2333V11.2808V11.3283V11.3758V11.4233V11.4708V11.5183V11.5658V11.6133V11.6608V11.7083V11.7558V11.8033V11.8508V11.8983V11.9458V11.9933V12.0407V12.0882V12.1357V12.1832V12.2307V12.2782V12.3257V12.3732V12.4207V12.4682V12.5157V12.5632V12.6107V12.6582V12.7057V12.7532V12.8007V12.8482V12.8957V12.9432V12.9907V13.0382V13.0857V13.1332V13.1807V13.2282V13.2757V13.3232V13.3707V13.4182V13.4657V13.5132V13.5607V13.6082V13.6557V13.7032V13.7507V13.7982V13.8457V13.8932V13.9407V13.9882V14.0357V14.0832V14.1307V14.1782V14.2257V14.2732V14.3207V14.3682V14.4157V14.4632V14.5107V14.5582V14.6057V14.6532V14.7007V14.7482V14.7957V14.8432V14.8907V14.9382V14.9857V15.0332V15.0807V15.1282V15.1757V15.2232V15.2707V15.3182V15.3657V15.4132V15.4607V15.5082V15.5557V15.6032V15.6507V15.6982V15.7458V15.7933V15.8408V15.8883V15.9358V15.9833V16.0308V16.0783V16.1258V16.1733V16.2208V16.2683V16.3158V16.3633V16.4108V16.4583V16.5058V16.5533V16.6009V16.6484V16.6959V16.7434V16.7909V16.8384V16.8859V16.9334V16.9809V17.0284V17.0759V17.1234V17.1709V17.2185V17.266V17.3135V17.361V17.4085V17.456V17.5035V17.551V17.5985V17.646V17.6936V17.7411V17.7886V17.8361V17.8836V17.9311V17.9786V18.0261V18.0736V18.1212V18.1687V18.2162V18.2637V18.3112V18.3587V18.4062V18.4537V18.5012V18.5488V18.5963V18.6438V18.6913V18.7388V18.7863V18.8338V18.8814V18.9289V18.9764V19.0239V19.0714V19.1189V19.1664V19.214V19.2615V19.309V19.3565V19.404V19.4515V19.4991V19.5466V19.5941V19.6416V19.6891V19.7366V19.7842V19.8317V19.8792V19.9267V19.9742V20.0217V20.0693V20.1168V20.1643V20.2118V20.2593V20.3069V20.3544V20.4019V20.4494V20.4969V20.5445V20.592V20.6395V20.687V20.7345V20.7821V20.8296V20.8771V20.9246V20.9721V21.0197V21.0672V21.1147V21.1622V21.2098V21.2573V21.3048V21.3523V21.3999V21.4474V21.4949V21.5424V21.5899V21.6375V21.685V21.7325V21.78V21.8276V21.8751V21.9226V21.9701V22.0177V22.0652V22.1127V22.1603V22.2078V22.2553V22.3028V22.3504V22.3979V22.4454V22.4929V22.5405V22.588V22.6355V22.6831V22.7306V22.7781V22.8256V22.8732V22.9207V22.9682V23.0158V23.0633V23.1108V23.1584V23.2059V23.2534V23.301V23.3485V23.396V23.4435V23.4911V23.5386V23.5861V23.6337V23.6812V23.7287V23.7763V23.8238V23.8713V23.9189V23.9664V24.014V24.0615V24.109V24.1566V24.2041V24.2516V24.2992V24.3467V24.3942V24.4418V24.4893V24.5368V24.5844V24.6319V24.6795V24.727V24.7745V24.8221V24.8696V24.9172V24.9647V25.0122V25.0598V25.1073V25.1549V25.2024V25.2499V25.2975V25.345V25.3926V25.4401V25.4876V25.5352V25.5827V25.6303V25.6778V25.7254V25.7729V25.8204V25.868V25.9155V25.9631V26.0106V26.0582V26.1057V26.1532V26.2008V26.2483V26.2959V26.3434V26.391V26.4385V26.4861V26.5336V26.5812V26.6287V26.6763V26.7238V26.7714V26.8189V26.8665V26.914V26.9616V27.0091V27.0567V27.1042V27.1518V27.1993V27.2469V27.2944V27.342V27.3895V27.4371V27.4846V27.5322V27.5797V27.6273V27.6748V27.7224V27.7699V27.8175V27.865V27.9126V27.9602V28.0077V28.0553V28.1028V28.1504V28.1979V28.2455V28.293V28.3406V28.3882V28.4357V28.4833V28.5308V28.5784V28.6259V28.6735V28.7211V28.7686V28.8162V28.8637V28.9113V28.9589V29.0064V29.054V29.1015V29.1491V29.1967V29.2442V29.2918V29.3394V29.3869V29.4345V29.482V29.5296V29.5772V29.6247V29.6723V29.7199V29.7674V29.815V29.8626V29.9101V29.9577V30.0053V30.0528V30.1004V30.148V30.1955V30.2431V30.2907V30.3382V30.3858V30.4334V30.4809V30.5285V30.5761V30.6237V30.6712C54.75 33.9547 52.1774 36.6192 48.9644 36.75H48.8856H48.8019H48.7181H48.6343H48.5505H48.4668H48.383H48.2992H48.2154H48.1316H48.0479H47.9641H47.8803H47.7965H47.7128H47.629H47.5452H47.4614H47.3776H47.2939H47.2101H47.1263H47.0425H46.9587H46.875H46.7912H46.7074H46.6236H46.5398H46.456H46.3723H46.2885H46.2047H46.1209H46.0371H45.9533H45.8695H45.7858H45.702H45.6182H45.5344H45.4506H45.3668H45.283H45.1993H45.1155H45.0317H44.9479H44.8641H44.7803H44.6965H44.6127H44.5289H44.4452H44.3614H44.2776H44.1938H44.11H44.0262H43.9424H43.8586H43.7748H43.691H43.6073H43.5235H43.4397H43.3559H43.2721H43.1883H43.1045H43.0207H42.9369H42.8531H42.7693H42.6855H42.6017H42.5179H42.4341H42.3503H42.2665H42.1827H42.0989H42.0151H41.9313H41.8475H41.7638H41.68H41.5962H41.5124H41.4286H41.3448H41.261H41.1772H41.0934H41.0096H40.9258H40.842H40.7581H40.6743H40.5905H40.5067H40.4229H40.3391H40.2553H40.1715H40.0877H40.0039H39.9201H39.8363H39.7525H39.6687H39.5849H39.5011H39.4173H39.3335H39.2497H39.1659H39.0821H38.9982H38.9144H38.8306H38.7468H38.663H38.5792H38.4954H38.4116H38.3278H38.244H38.1601H38.0763H37.9925H37.9087H37.8249H37.7411H37.6573H37.5735H37.4897H37.4058H37.322H37.2382H37.1544H37.0706H36.9868H36.903H36.8191H36.7353H36.6515H36.5677H36.4839H36.4H36.3162H36.2324H36.1486H36.0648H35.981H35.8971H35.8133H35.7295H35.6457H35.5619H35.478H35.3942H35.3104H35.2266H35.1427H35.0589H34.9751H34.8913H34.8075H34.7236H34.6398H34.556H34.4722H34.3883H34.3045H34.2207H34.1369H34.053H33.9692H33.8854H33.8016H33.7177H33.6339H33.5501H33.4662H33.3824H33.2986H33.2148H33.1309H33.0471H32.9633H32.8794H32.7956H32.7118H32.6279H32.5441H32.4603H32.3764H32.2926H32.2088H32.1249H32.0411H31.9573H31.8734H31.7896H31.7058H31.6219H31.5381H31.4543H31.3704H31.2866H31.2027H31.1189H31.0351H30.9512H30.8674H30.7835H30.6997H30.6159H30.532H30.4482H30.3643H30.2805H30.1967H30.1128H30.029H29.9451H29.8613H29.7774H29.6936H29.6098H29.5259H29.4421H29.3582H29.2744H29.1905H29.1067H29.0228H28.939H28.8551H28.7713H28.6874H28.6036H28.5197H28.4359H28.352H28.2682H28.1843H28.1005H28.0166H27.9328H27.8489H27.7651H27.6812H27.5974H27.5135H27.4297H27.3458H27.262H27.1781H27.0943H27.0104H26.9265H26.8427H26.7588H26.675H26.5911H26.5073H26.4234H26.3395H26.2557H26.1718H26.088H26.0041H25.9202H25.8364H25.7525H25.6687H25.5848H25.5009H25.4171H25.3332H25.2494H25.1655H25.0816H24.9978H24.9139H24.83H24.7462H24.6623H24.5784H24.4946H24.4107H24.3268H24.243H24.1591H24.0752H23.9914H23.9075H23.8236H23.7397H23.6559H23.572H23.4881H23.4043H23.3204H23.2365H23.1526H23.0688H22.9849H22.901H22.8172H22.7333H22.6494H22.5655H22.4817H22.3978H22.3139H22.23H22.1461H22.0623H21.9784H21.8945H21.8106H21.7267H21.6429H21.559H21.4751H21.3912H21.3073H21.2235H21.1396H21.0557H20.9718H20.8879H20.804H20.7202H20.6363H20.5524H20.4685H20.3846H20.3007H20.2169H20.133H20.0491H19.9652H19.8813H19.7974H19.7135H19.6296H19.5457H19.4619H19.378H19.2941H19.2102H19.1263H19.0424H18.9585H18.8746H18.7907H18.7068H18.6229H18.539H18.4551H18.3712H18.2873H18.2034H18.1196H18.0357H17.9518H17.8679H17.784H17.7001H17.6162H17.5323H17.4484H17.3645H17.2806H17.1967H17.1128H17.0289H16.945H16.861H16.7771H16.6932H16.6093H16.5254H16.4415H16.3576H16.2737H16.1898H16.1059H16.022H15.9381H15.8542H15.7703H15.6864H15.6024H15.5185H15.4346H15.3507H15.2668H15.1829H15.099H15.0151H14.9312H14.8472H14.7633H14.6794H14.5955H14.5116H14.4277H14.3438H14.2598H14.1759H14.092H14.0081H13.9242H13.8402H13.7563H13.6724H13.5885H13.5046H13.4206H13.3367H13.2528H13.1689H13.085H13.001H12.9171H12.8332H12.7493H12.6653H12.5814H12.4975H12.4136H12.3296H12.2457H12.1618H12.0778H11.9939H11.91H11.8261H11.7421H11.6582H11.5743H11.4903H11.4064H11.3225H11.2385H11.1546H11.0707H10.9867H10.9028H10.8189H10.7349H10.651H10.5671H10.4831H10.3992H10.3153H10.2313H10.1474H10.0634H9.9795H9.89556H9.81162H9.72768H9.64373H9.55979H9.47585H9.39191H9.30797H9.22402H9.14008H9.05613H8.97219H8.88824H8.8043H8.72035H8.6364H8.55245H8.46851H8.38456H8.30061H8.21666H8.13271H8.04876H7.96481H7.88086H7.79691H7.71295H7.629H7.54505H7.4611H7.37714H7.29319H7.20923H7.12528H7.04132H6.95736H6.87341H6.78945H6.70549H6.62153H6.53757H6.45362H6.36966H6.2857H6.20173H6.11777H6.03884C2.82253 36.6192 0.25 33.9547 0.25 30.6712V30.6238V30.5764V30.529V30.4816V30.4342V30.3868V30.3394V30.2919V30.2445V30.1971V30.1497V30.1023V30.0549V30.0075V29.9601V29.9126V29.8652V29.8178V29.7704V29.723V29.6756V29.6282V29.5807V29.5333V29.4859V29.4385V29.3911V29.3436V29.2962V29.2488V29.2014V29.154V29.1066V29.0591V29.0117V28.9643V28.9169V28.8694V28.822V28.7746V28.7272V28.6797V28.6323V28.5849V28.5375V28.49V28.4426V28.3952V28.3478V28.3003V28.2529V28.2055V28.1581V28.1106V28.0632V28.0158V27.9683V27.9209V27.8735V27.826V27.7786V27.7312V27.6837V27.6363V27.5889V27.5414V27.494V27.4466V27.3991V27.3517V27.3043V27.2568V27.2094V27.162V27.1145V27.0671V27.0196V26.9722V26.9248V26.8773V26.8299V26.7824V26.735V26.6876V26.6401V26.5927V26.5452V26.4978V26.4503V26.4029V26.3555V26.308V26.2606V26.2131V26.1657V26.1182V26.0708V26.0233V25.9759V25.9284V25.881V25.8335V25.7861V25.7386V25.6912V25.6437V25.5963V25.5488V25.5014V25.4539V25.4065V25.359V25.3116V25.2641V25.2167V25.1692V25.1218V25.0743V25.0268V24.9794V24.9319V24.8845V24.837V24.7896V24.7421V24.6946V24.6472V24.5997V24.5523V24.5048V24.4573V24.4099V24.3624V24.315V24.2675V24.22V24.1726V24.1251V24.0776V24.0302V23.9827V23.9352V23.8878V23.8403V23.7928V23.7454V23.6979V23.6504V23.603V23.5555V23.508V23.4606V23.4131V23.3656V23.3181V23.2707V23.2232V23.1757V23.1283V23.0808V23.0333V22.9858V22.9384V22.8909V22.8434V22.7959V22.7485V22.701V22.6535V22.606V22.5585V22.5111V22.4636V22.4161V22.3686V22.3211V22.2737V22.2262V22.1787V22.1312V22.0837V22.0363V21.9888V21.9413V21.8938V21.8463V21.7988V21.7514V21.7039V21.6564V21.6089V21.5614V21.5139V21.4664V21.4189V21.3715V21.324V21.2765V21.229V21.1815V21.134V21.0865V21.039V20.9915V20.944V20.8965V20.849V20.8015V20.7541V20.7066V20.6591V20.6116V20.5641V20.5166V20.4691V20.4216V20.3741V20.3266V20.2791V20.2316V20.1841V20.1366V20.0891V20.0416V19.9941V19.9466V19.8991V19.8516V19.8041V19.7566V19.7091V19.6616V19.614V19.5665V19.519V19.4715V19.424V19.3765V19.329V19.2815V19.234V19.1865V19.139V19.0915V19.0439V18.9964V18.9489V18.9014V18.8539V18.8064V18.7589V18.7114V18.6638V18.6163V18.5688V18.5213V18.4738V18.4263V18.3787V18.3312V18.2837V18.2362V18.1887V18.1412V18.0936V18.0461V17.9986V17.9511V17.9036V17.856V17.8085V17.761V17.7135V17.6659V17.6184V17.5709V17.5234V17.4758V17.4283V17.3808V17.3333V17.2857V17.2382V17.1907V17.1431V17.0956V17.0481V17.0006V16.953V16.9055V16.858V16.8104V16.7629V16.7154V16.6678V16.6203V16.5728V16.5252V16.4777V16.4302V16.3826V16.3351V16.2875V16.24V16.1925V16.1449V16.0974V16.0498V16.0023V15.9548V15.9072V15.8597V15.8121V15.7646V15.7171V15.6695V15.622V15.5744V15.5269V15.4793V15.4318V15.3842V15.3367V15.2891V15.2416V15.1941V15.1465V15.099V15.0514V15.0039V14.9563V14.9088V14.8612V14.8137V14.7661V14.7185V14.671V14.6234V14.5759V14.5283V14.4808V14.4332V14.3857V14.3381V14.2906V14.243V14.1954V14.1479V14.1003V14.0528V14.0052V13.9576V13.9101V13.8625V13.815V13.7674V13.7198V13.6723V13.6247V13.5771V13.5296V13.482V13.4344V13.3869V13.3393V13.2917V13.2442V13.1966V13.149V13.1015V13.0539V13.0063V12.9588V12.9112V12.8636V12.816V12.7685V12.7209V12.6733V12.6258V12.5782V12.5306V12.483V12.4355V12.3879V12.3403V12.2927V12.2451V12.1976V12.15V12.1024V12.0548V12.0073V11.9597V11.9121V11.8645V11.8169V11.7693V11.7218V11.6742V11.6266V11.579V11.5314V11.4838V11.4363V11.3887V11.3411V11.2935V11.2459V11.1983V11.1507V11.1031V11.0555V11.008V10.9604V10.9128V10.8652V10.8176V10.77V10.7224V10.6748V10.6272V10.5796V10.532V10.4844V10.4368V10.3892V10.3416V10.294V10.2464V10.1988V10.1512V10.1037V10.056V10.0084V9.96085V9.91325V9.86564V9.81804V9.77044V9.72284V9.67523V9.62763V9.58002V9.53242V9.48481V9.4372V9.3896V9.34199V9.29438V9.24677V9.19916V9.15155V9.10394V9.05633V9.00872V8.96111V8.9135V8.86589V8.81827V8.77066V8.72304V8.67543V8.62782V8.5802V8.53258V8.48497V8.43735V8.38973V8.34211V8.2945V8.24688V8.19926V8.15164V8.10402V8.0564V8.00877V7.96115V7.91353V7.86591V7.81828V7.77066V7.72303V7.67541V7.62778V7.58016V7.53253V7.4849V7.43727V7.38965V7.34202V7.29439V7.24676V7.19913V7.1515V7.10387V7.05624V7.0086V6.96097V6.91334V6.8657V6.81807V6.77043V6.7228V6.67516V6.62753V6.57989V6.53225V6.48461V6.43698V6.38934V6.3417C0.25 2.97476 2.95381 0.25 6.28265 0.25H48.7216C52.0514 0.25 54.752 2.97357 54.75 6.34155ZM12.8974 25.5814L12.8974 25.5815L12.9073 25.5814C14.648 25.5524 16.4675 25.4249 18.1485 24.573C18.6444 24.3232 18.9937 24.0341 19.1406 23.6279C19.2861 23.2258 19.2094 22.773 19.0178 22.256L19.0177 22.2557C18.6346 21.2262 17.8891 20.5233 16.9947 20.0139C15.3319 19.0648 13.5255 18.8463 11.6867 19.1035L11.7213 19.3511L11.6867 19.1035C9.94357 19.3475 8.29221 19.9517 7.24404 21.5969L7.24381 21.5972C6.78605 22.3184 6.57865 22.9622 6.76352 23.5342C6.94814 24.1054 7.49234 24.5062 8.27525 24.8262C9.75752 25.4328 11.3156 25.5449 12.8974 25.5814ZM45.6676 12.9826C46.7579 12.9826 47.6384 12.0888 47.6384 10.9951C47.6384 9.89902 46.7577 9.00757 45.6676 9.00757H29.2245C28.1343 9.00757 27.2537 9.90019 27.2537 10.9951C27.2537 12.0888 28.1342 12.9826 29.2245 12.9826H45.6676ZM33.8425 19.0911C34.9328 19.0911 35.8133 18.1973 35.8133 17.1035C35.8133 16.0075 34.9326 15.116 33.8425 15.116H29.2245C28.1343 15.116 27.2537 16.0086 27.2537 17.1035C27.2537 18.1973 28.1342 19.0911 29.2245 19.0911H33.8425ZM45.6676 24.9216C46.7579 24.9216 47.6384 24.0278 47.6384 22.9341C47.6384 21.8381 46.7577 20.9466 45.6676 20.9466H34.2396C33.1506 20.9466 32.2688 21.8379 32.2688 22.9341C32.2688 24.0279 33.1504 24.9216 34.2396 24.9216H45.6676Z" stroke="black" stroke-width="0.5"/>
<path d="M18.3229 13.298C18.3415 16.1861 15.9598 18.6062 13.0853 18.6186C10.2187 18.6309 7.82695 16.2284 7.81695 13.3311M18.3229 13.298L8.06695 13.3303M18.3229 13.298C18.3095 10.4002 15.9192 7.99738 13.0532 8.01312M18.3229 13.298L13.0546 8.26312M7.81695 13.3311L8.06695 13.3303M7.81695 13.3311C7.81695 13.3312 7.81695 13.3313 7.81695 13.3313L8.06695 13.3303M7.81695 13.3311C7.80483 10.4427 10.1795 8.02672 13.0532 8.01312M8.06695 13.3303C8.0553 10.578 10.3204 8.27595 13.0546 8.26312M13.0532 8.01312L13.0546 8.26312M13.0532 8.01312C13.0533 8.01312 13.0533 8.01312 13.0534 8.01312L13.0546 8.26312M54.75 6.34155V6.3417V6.38919V6.43668V6.48417V6.53166V6.57914V6.62663V6.67412V6.72161V6.7691V6.81659V6.86408V6.91157V6.95906V7.00655V7.05404V7.10153V7.14902V7.19651V7.244V7.29149V7.33898V7.38647V7.43396V7.48145V7.52894V7.57643V7.62392V7.67141V7.7189V7.76639V7.81388V7.86137V7.90886V7.95635V8.00384V8.05133V8.09882V8.14631V8.1938V8.2413V8.28879V8.33628V8.38377V8.43126V8.47875V8.52624V8.57373V8.62122V8.66871V8.71621V8.7637V8.81119V8.85868V8.90617V8.95366V9.00115V9.04865V9.09614V9.14363V9.19112V9.23861V9.2861V9.3336V9.38109V9.42858V9.47607V9.52356V9.57106V9.61855V9.66604V9.71353V9.76103V9.80852V9.85601V9.9035V9.951V9.99849V10.046V10.0935V10.141V10.1885V10.236V10.2834V10.3309V10.3784V10.4259V10.4734V10.5209V10.5684V10.6159V10.6634V10.7109V10.7584V10.8059V10.8534V10.9009V10.9484V10.9959V11.0433V11.0908V11.1383V11.1858V11.2333V11.2808V11.3283V11.3758V11.4233V11.4708V11.5183V11.5658V11.6133V11.6608V11.7083V11.7558V11.8033V11.8508V11.8983V11.9458V11.9933V12.0407V12.0882V12.1357V12.1832V12.2307V12.2782V12.3257V12.3732V12.4207V12.4682V12.5157V12.5632V12.6107V12.6582V12.7057V12.7532V12.8007V12.8482V12.8957V12.9432V12.9907V13.0382V13.0857V13.1332V13.1807V13.2282V13.2757V13.3232V13.3707V13.4182V13.4657V13.5132V13.5607V13.6082V13.6557V13.7032V13.7507V13.7982V13.8457V13.8932V13.9407V13.9882V14.0357V14.0832V14.1307V14.1782V14.2257V14.2732V14.3207V14.3682V14.4157V14.4632V14.5107V14.5582V14.6057V14.6532V14.7007V14.7482V14.7957V14.8432V14.8907V14.9382V14.9857V15.0332V15.0807V15.1282V15.1757V15.2232V15.2707V15.3182V15.3657V15.4132V15.4607V15.5082V15.5557V15.6032V15.6507V15.6982V15.7458V15.7933V15.8408V15.8883V15.9358V15.9833V16.0308V16.0783V16.1258V16.1733V16.2208V16.2683V16.3158V16.3633V16.4108V16.4583V16.5058V16.5533V16.6009V16.6484V16.6959V16.7434V16.7909V16.8384V16.8859V16.9334V16.9809V17.0284V17.0759V17.1234V17.1709V17.2185V17.266V17.3135V17.361V17.4085V17.456V17.5035V17.551V17.5985V17.646V17.6936V17.7411V17.7886V17.8361V17.8836V17.9311V17.9786V18.0261V18.0736V18.1212V18.1687V18.2162V18.2637V18.3112V18.3587V18.4062V18.4537V18.5012V18.5488V18.5963V18.6438V18.6913V18.7388V18.7863V18.8338V18.8814V18.9289V18.9764V19.0239V19.0714V19.1189V19.1664V19.214V19.2615V19.309V19.3565V19.404V19.4515V19.4991V19.5466V19.5941V19.6416V19.6891V19.7366V19.7842V19.8317V19.8792V19.9267V19.9742V20.0217V20.0693V20.1168V20.1643V20.2118V20.2593V20.3069V20.3544V20.4019V20.4494V20.4969V20.5445V20.592V20.6395V20.687V20.7345V20.7821V20.8296V20.8771V20.9246V20.9721V21.0197V21.0672V21.1147V21.1622V21.2098V21.2573V21.3048V21.3523V21.3999V21.4474V21.4949V21.5424V21.5899V21.6375V21.685V21.7325V21.78V21.8276V21.8751V21.9226V21.9701V22.0177V22.0652V22.1127V22.1603V22.2078V22.2553V22.3028V22.3504V22.3979V22.4454V22.4929V22.5405V22.588V22.6355V22.6831V22.7306V22.7781V22.8256V22.8732V22.9207V22.9682V23.0158V23.0633V23.1108V23.1584V23.2059V23.2534V23.301V23.3485V23.396V23.4435V23.4911V23.5386V23.5861V23.6337V23.6812V23.7287V23.7763V23.8238V23.8713V23.9189V23.9664V24.014V24.0615V24.109V24.1566V24.2041V24.2516V24.2992V24.3467V24.3942V24.4418V24.4893V24.5368V24.5844V24.6319V24.6795V24.727V24.7745V24.8221V24.8696V24.9172V24.9647V25.0122V25.0598V25.1073V25.1549V25.2024V25.2499V25.2975V25.345V25.3926V25.4401V25.4876V25.5352V25.5827V25.6303V25.6778V25.7254V25.7729V25.8204V25.868V25.9155V25.9631V26.0106V26.0582V26.1057V26.1532V26.2008V26.2483V26.2959V26.3434V26.391V26.4385V26.4861V26.5336V26.5812V26.6287V26.6763V26.7238V26.7714V26.8189V26.8665V26.914V26.9616V27.0091V27.0567V27.1042V27.1518V27.1993V27.2469V27.2944V27.342V27.3895V27.4371V27.4846V27.5322V27.5797V27.6273V27.6748V27.7224V27.7699V27.8175V27.865V27.9126V27.9602V28.0077V28.0553V28.1028V28.1504V28.1979V28.2455V28.293V28.3406V28.3882V28.4357V28.4833V28.5308V28.5784V28.6259V28.6735V28.7211V28.7686V28.8162V28.8637V28.9113V28.9589V29.0064V29.054V29.1015V29.1491V29.1967V29.2442V29.2918V29.3394V29.3869V29.4345V29.482V29.5296V29.5772V29.6247V29.6723V29.7199V29.7674V29.815V29.8626V29.9101V29.9577V30.0053V30.0528V30.1004V30.148V30.1955V30.2431V30.2907V30.3382V30.3858V30.4334V30.4809V30.5285V30.5761V30.6237V30.6712C54.75 33.9547 52.1774 36.6192 48.9644 36.75H48.8856H48.8019H48.7181H48.6343H48.5505H48.4668H48.383H48.2992H48.2154H48.1316H48.0479H47.9641H47.8803H47.7965H47.7128H47.629H47.5452H47.4614H47.3776H47.2939H47.2101H47.1263H47.0425H46.9587H46.875H46.7912H46.7074H46.6236H46.5398H46.456H46.3723H46.2885H46.2047H46.1209H46.0371H45.9533H45.8695H45.7858H45.702H45.6182H45.5344H45.4506H45.3668H45.283H45.1993H45.1155H45.0317H44.9479H44.8641H44.7803H44.6965H44.6127H44.5289H44.4452H44.3614H44.2776H44.1938H44.11H44.0262H43.9424H43.8586H43.7748H43.691H43.6073H43.5235H43.4397H43.3559H43.2721H43.1883H43.1045H43.0207H42.9369H42.8531H42.7693H42.6855H42.6017H42.5179H42.4341H42.3503H42.2665H42.1827H42.0989H42.0151H41.9313H41.8475H41.7638H41.68H41.5962H41.5124H41.4286H41.3448H41.261H41.1772H41.0934H41.0096H40.9258H40.842H40.7581H40.6743H40.5905H40.5067H40.4229H40.3391H40.2553H40.1715H40.0877H40.0039H39.9201H39.8363H39.7525H39.6687H39.5849H39.5011H39.4173H39.3335H39.2497H39.1659H39.0821H38.9982H38.9144H38.8306H38.7468H38.663H38.5792H38.4954H38.4116H38.3278H38.244H38.1601H38.0763H37.9925H37.9087H37.8249H37.7411H37.6573H37.5735H37.4897H37.4058H37.322H37.2382H37.1544H37.0706H36.9868H36.903H36.8191H36.7353H36.6515H36.5677H36.4839H36.4H36.3162H36.2324H36.1486H36.0648H35.981H35.8971H35.8133H35.7295H35.6457H35.5619H35.478H35.3942H35.3104H35.2266H35.1427H35.0589H34.9751H34.8913H34.8075H34.7236H34.6398H34.556H34.4722H34.3883H34.3045H34.2207H34.1369H34.053H33.9692H33.8854H33.8016H33.7177H33.6339H33.5501H33.4662H33.3824H33.2986H33.2148H33.1309H33.0471H32.9633H32.8794H32.7956H32.7118H32.6279H32.5441H32.4603H32.3764H32.2926H32.2088H32.1249H32.0411H31.9573H31.8734H31.7896H31.7058H31.6219H31.5381H31.4543H31.3704H31.2866H31.2027H31.1189H31.0351H30.9512H30.8674H30.7835H30.6997H30.6159H30.532H30.4482H30.3643H30.2805H30.1967H30.1128H30.029H29.9451H29.8613H29.7774H29.6936H29.6098H29.5259H29.4421H29.3582H29.2744H29.1905H29.1067H29.0228H28.939H28.8551H28.7713H28.6874H28.6036H28.5197H28.4359H28.352H28.2682H28.1843H28.1005H28.0166H27.9328H27.8489H27.7651H27.6812H27.5974H27.5135H27.4297H27.3458H27.262H27.1781H27.0943H27.0104H26.9265H26.8427H26.7588H26.675H26.5911H26.5073H26.4234H26.3395H26.2557H26.1718H26.088H26.0041H25.9202H25.8364H25.7525H25.6687H25.5848H25.5009H25.4171H25.3332H25.2494H25.1655H25.0816H24.9978H24.9139H24.83H24.7462H24.6623H24.5784H24.4946H24.4107H24.3268H24.243H24.1591H24.0752H23.9914H23.9075H23.8236H23.7397H23.6559H23.572H23.4881H23.4043H23.3204H23.2365H23.1526H23.0688H22.9849H22.901H22.8172H22.7333H22.6494H22.5655H22.4817H22.3978H22.3139H22.23H22.1461H22.0623H21.9784H21.8945H21.8106H21.7267H21.6429H21.559H21.4751H21.3912H21.3073H21.2235H21.1396H21.0557H20.9718H20.8879H20.804H20.7202H20.6363H20.5524H20.4685H20.3846H20.3007H20.2169H20.133H20.0491H19.9652H19.8813H19.7974H19.7135H19.6296H19.5457H19.4619H19.378H19.2941H19.2102H19.1263H19.0424H18.9585H18.8746H18.7907H18.7068H18.6229H18.539H18.4551H18.3712H18.2873H18.2034H18.1196H18.0357H17.9518H17.8679H17.784H17.7001H17.6162H17.5323H17.4484H17.3645H17.2806H17.1967H17.1128H17.0289H16.945H16.861H16.7771H16.6932H16.6093H16.5254H16.4415H16.3576H16.2737H16.1898H16.1059H16.022H15.9381H15.8542H15.7703H15.6864H15.6024H15.5185H15.4346H15.3507H15.2668H15.1829H15.099H15.0151H14.9312H14.8472H14.7633H14.6794H14.5955H14.5116H14.4277H14.3438H14.2598H14.1759H14.092H14.0081H13.9242H13.8402H13.7563H13.6724H13.5885H13.5046H13.4206H13.3367H13.2528H13.1689H13.085H13.001H12.9171H12.8332H12.7493H12.6653H12.5814H12.4975H12.4136H12.3296H12.2457H12.1618H12.0778H11.9939H11.91H11.8261H11.7421H11.6582H11.5743H11.4903H11.4064H11.3225H11.2385H11.1546H11.0707H10.9867H10.9028H10.8189H10.7349H10.651H10.5671H10.4831H10.3992H10.3153H10.2313H10.1474H10.0634H9.9795H9.89556H9.81162H9.72768H9.64373H9.55979H9.47585H9.39191H9.30797H9.22402H9.14008H9.05613H8.97219H8.88824H8.8043H8.72035H8.6364H8.55245H8.46851H8.38456H8.30061H8.21666H8.13271H8.04876H7.96481H7.88086H7.79691H7.71295H7.629H7.54505H7.4611H7.37714H7.29319H7.20923H7.12528H7.04132H6.95736H6.87341H6.78945H6.70549H6.62153H6.53757H6.45362H6.36966H6.2857H6.20173H6.11777H6.03884C2.82253 36.6192 0.25 33.9547 0.25 30.6712V30.6238V30.5764V30.529V30.4816V30.4342V30.3868V30.3394V30.2919V30.2445V30.1971V30.1497V30.1023V30.0549V30.0075V29.9601V29.9126V29.8652V29.8178V29.7704V29.723V29.6756V29.6282V29.5807V29.5333V29.4859V29.4385V29.3911V29.3436V29.2962V29.2488V29.2014V29.154V29.1066V29.0591V29.0117V28.9643V28.9169V28.8694V28.822V28.7746V28.7272V28.6797V28.6323V28.5849V28.5375V28.49V28.4426V28.3952V28.3478V28.3003V28.2529V28.2055V28.1581V28.1106V28.0632V28.0158V27.9683V27.9209V27.8735V27.826V27.7786V27.7312V27.6837V27.6363V27.5889V27.5414V27.494V27.4466V27.3991V27.3517V27.3043V27.2568V27.2094V27.162V27.1145V27.0671V27.0196V26.9722V26.9248V26.8773V26.8299V26.7824V26.735V26.6876V26.6401V26.5927V26.5452V26.4978V26.4503V26.4029V26.3555V26.308V26.2606V26.2131V26.1657V26.1182V26.0708V26.0233V25.9759V25.9284V25.881V25.8335V25.7861V25.7386V25.6912V25.6437V25.5963V25.5488V25.5014V25.4539V25.4065V25.359V25.3116V25.2641V25.2167V25.1692V25.1218V25.0743V25.0268V24.9794V24.9319V24.8845V24.837V24.7896V24.7421V24.6946V24.6472V24.5997V24.5523V24.5048V24.4573V24.4099V24.3624V24.315V24.2675V24.22V24.1726V24.1251V24.0776V24.0302V23.9827V23.9352V23.8878V23.8403V23.7928V23.7454V23.6979V23.6504V23.603V23.5555V23.508V23.4606V23.4131V23.3656V23.3181V23.2707V23.2232V23.1757V23.1283V23.0808V23.0333V22.9858V22.9384V22.8909V22.8434V22.7959V22.7485V22.701V22.6535V22.606V22.5585V22.5111V22.4636V22.4161V22.3686V22.3211V22.2737V22.2262V22.1787V22.1312V22.0837V22.0363V21.9888V21.9413V21.8938V21.8463V21.7988V21.7514V21.7039V21.6564V21.6089V21.5614V21.5139V21.4664V21.4189V21.3715V21.324V21.2765V21.229V21.1815V21.134V21.0865V21.039V20.9915V20.944V20.8965V20.849V20.8015V20.7541V20.7066V20.6591V20.6116V20.5641V20.5166V20.4691V20.4216V20.3741V20.3266V20.2791V20.2316V20.1841V20.1366V20.0891V20.0416V19.9941V19.9466V19.8991V19.8516V19.8041V19.7566V19.7091V19.6616V19.614V19.5665V19.519V19.4715V19.424V19.3765V19.329V19.2815V19.234V19.1865V19.139V19.0915V19.0439V18.9964V18.9489V18.9014V18.8539V18.8064V18.7589V18.7114V18.6638V18.6163V18.5688V18.5213V18.4738V18.4263V18.3787V18.3312V18.2837V18.2362V18.1887V18.1412V18.0936V18.0461V17.9986V17.9511V17.9036V17.856V17.8085V17.761V17.7135V17.6659V17.6184V17.5709V17.5234V17.4758V17.4283V17.3808V17.3333V17.2857V17.2382V17.1907V17.1431V17.0956V17.0481V17.0006V16.953V16.9055V16.858V16.8104V16.7629V16.7154V16.6678V16.6203V16.5728V16.5252V16.4777V16.4302V16.3826V16.3351V16.2875V16.24V16.1925V16.1449V16.0974V16.0498V16.0023V15.9548V15.9072V15.8597V15.8121V15.7646V15.7171V15.6695V15.622V15.5744V15.5269V15.4793V15.4318V15.3842V15.3367V15.2891V15.2416V15.1941V15.1465V15.099V15.0514V15.0039V14.9563V14.9088V14.8612V14.8137V14.7661V14.7185V14.671V14.6234V14.5759V14.5283V14.4808V14.4332V14.3857V14.3381V14.2906V14.243V14.1954V14.1479V14.1003V14.0528V14.0052V13.9576V13.9101V13.8625V13.815V13.7674V13.7198V13.6723V13.6247V13.5771V13.5296V13.482V13.4344V13.3869V13.3393V13.2917V13.2442V13.1966V13.149V13.1015V13.0539V13.0063V12.9588V12.9112V12.8636V12.816V12.7685V12.7209V12.6733V12.6258V12.5782V12.5306V12.483V12.4355V12.3879V12.3403V12.2927V12.2451V12.1976V12.15V12.1024V12.0548V12.0073V11.9597V11.9121V11.8645V11.8169V11.7693V11.7218V11.6742V11.6266V11.579V11.5314V11.4838V11.4363V11.3887V11.3411V11.2935V11.2459V11.1983V11.1507V11.1031V11.0555V11.008V10.9604V10.9128V10.8652V10.8176V10.77V10.7224V10.6748V10.6272V10.5796V10.532V10.4844V10.4368V10.3892V10.3416V10.294V10.2464V10.1988V10.1512V10.1037V10.056V10.0084V9.96085V9.91325V9.86564V9.81804V9.77044V9.72284V9.67523V9.62763V9.58002V9.53242V9.48481V9.4372V9.3896V9.34199V9.29438V9.24677V9.19916V9.15155V9.10394V9.05633V9.00872V8.96111V8.9135V8.86589V8.81827V8.77066V8.72304V8.67543V8.62782V8.5802V8.53258V8.48497V8.43735V8.38973V8.34211V8.2945V8.24688V8.19926V8.15164V8.10402V8.0564V8.00877V7.96115V7.91353V7.86591V7.81828V7.77066V7.72303V7.67541V7.62778V7.58016V7.53253V7.4849V7.43727V7.38965V7.34202V7.29439V7.24676V7.19913V7.1515V7.10387V7.05624V7.0086V6.96097V6.91334V6.8657V6.81807V6.77043V6.7228V6.67516V6.62753V6.57989V6.53225V6.48461V6.43698V6.38934V6.3417C0.25 2.97476 2.95381 0.25 6.28265 0.25H48.7216C52.0514 0.25 54.752 2.97357 54.75 6.34155ZM12.8974 25.5814L12.8974 25.5815L12.9073 25.5814C14.648 25.5524 16.4675 25.4249 18.1485 24.573C18.6444 24.3232 18.9937 24.0341 19.1406 23.6279C19.2861 23.2258 19.2094 22.773 19.0178 22.256L19.0177 22.2557C18.6346 21.2262 17.8891 20.5233 16.9947 20.0139C15.3319 19.0648 13.5255 18.8463 11.6867 19.1035L11.7213 19.3511L11.6867 19.1035C9.94357 19.3475 8.29221 19.9517 7.24404 21.5969L7.24381 21.5972C6.78605 22.3184 6.57865 22.9622 6.76352 23.5342C6.94814 24.1054 7.49234 24.5062 8.27525 24.8262C9.75752 25.4328 11.3156 25.5449 12.8974 25.5814ZM45.6676 12.9826C46.7579 12.9826 47.6384 12.0888 47.6384 10.9951C47.6384 9.89902 46.7577 9.00757 45.6676 9.00757H29.2245C28.1343 9.00757 27.2537 9.90019 27.2537 10.9951C27.2537 12.0888 28.1342 12.9826 29.2245 12.9826H45.6676ZM33.8425 19.0911C34.9328 19.0911 35.8133 18.1973 35.8133 17.1035C35.8133 16.0075 34.9326 15.116 33.8425 15.116H29.2245C28.1343 15.116 27.2537 16.0086 27.2537 17.1035C27.2537 18.1973 28.1342 19.0911 29.2245 19.0911H33.8425ZM45.6676 24.9216C46.7579 24.9216 47.6384 24.0278 47.6384 22.9341C47.6384 21.8381 46.7577 20.9466 45.6676 20.9466H34.2396C33.1506 20.9466 32.2688 21.8379 32.2688 22.9341C32.2688 24.0279 33.1504 24.9216 34.2396 24.9216H45.6676Z" stroke="white" stroke-width="0.5"/>
</svg>
