<svg width="54" height="53" viewBox="0 0 54 53" fill="none" xmlns="http://www.w3.org/2000/svg">
<path d="M47.1114 20.9696H36.1523L30.3294 1H25.5034V20.9696H10.7843L5.29141 14.9274H1L5.0172 26.9603L1 38.9933H5.29152L10.9706 32.7464H25.5035V52.716H30.3295L36.1524 32.7464H47.1115C50.3585 32.7464 53 30.1049 53 26.858C53 23.611 50.3584 20.9696 47.1114 20.9696ZM27.0395 2.53613H29.1772L34.5523 20.9696H27.0395V2.53613ZM29.1772 51.1799H27.0395V32.7464H34.5523L29.1772 51.1799ZM47.1114 31.2103H10.2909L4.61186 37.4572H3.1322L6.63651 26.9604L3.1322 16.4636H4.61186L10.1048 22.5056H47.1114C49.5113 22.5056 51.4638 24.458 51.4638 26.858C51.4638 29.2579 49.5113 31.2103 47.1114 31.2103Z" stroke="#00EFFE" stroke-width="0.4"/>
<path d="M13.9385 3.61847H12.4023V5.1546H13.9385V3.61847Z" stroke="#00EFFE" stroke-width="0.4"/>
<path d="M7.79394 3.61847H6.25781V5.1546H7.79394V3.61847Z" stroke="#00EFFE" stroke-width="0.4"/>
<path d="M4.72168 3.61847H3.18555V5.1546H4.72168V3.61847Z" stroke="#00EFFE" stroke-width="0.4"/>
<path d="M10.8643 3.61847H9.32812V5.1546H10.8643V3.61847Z" stroke="#00EFFE" stroke-width="0.4"/>
<path d="M20.083 3.61847H18.5469V5.1546H20.083V3.61847Z" stroke="#00EFFE" stroke-width="0.4"/>
<path d="M23.1553 3.61847H21.6191V5.1546H23.1553V3.61847Z" stroke="#00EFFE" stroke-width="0.4"/>
<path d="M17.0088 3.61847H15.4727V5.1546H17.0088V3.61847Z" stroke="#00EFFE" stroke-width="0.4"/>
<path d="M13.9385 7.50995H12.4023V9.04608H13.9385V7.50995Z" stroke="#00EFFE" stroke-width="0.4"/>
<path d="M10.8656 7.50995H9.68359V9.04608H10.8656V7.50995Z" stroke="#00EFFE" stroke-width="0.4"/>
<path d="M17.0088 7.50995H15.4727V9.04608H17.0088V7.50995Z" stroke="#00EFFE" stroke-width="0.4"/>
<path d="M23.1553 7.50995H21.6191V9.04608H23.1553V7.50995Z" stroke="#00EFFE" stroke-width="0.4"/>
<path d="M20.083 7.50995H18.5469V9.04608H20.083V7.50995Z" stroke="#00EFFE" stroke-width="0.4"/>
<path d="M17.0088 11.6058H15.4727V13.1419H17.0088V11.6058Z" stroke="#00EFFE" stroke-width="0.4"/>
<path d="M20.083 11.6058H18.5469V13.1419H20.083V11.6058Z" stroke="#00EFFE" stroke-width="0.4"/>
<path d="M23.1553 11.6058H21.6191V13.1419H23.1553V11.6058Z" stroke="#00EFFE" stroke-width="0.4"/>
<path d="M20.083 48.4727H18.5469V50.0088H20.083V48.4727Z" stroke="#00EFFE" stroke-width="0.4"/>
<path d="M13.9385 48.4727H12.4023V50.0088H13.9385V48.4727Z" stroke="#00EFFE" stroke-width="0.4"/>
<path d="M17.0088 48.4727H15.4727V50.0088H17.0088V48.4727Z" stroke="#00EFFE" stroke-width="0.4"/>
<path d="M7.79394 48.4727H6.25781V50.0088H7.79394V48.4727Z" stroke="#00EFFE" stroke-width="0.4"/>
<path d="M10.8643 48.4727H9.32812V50.0088H10.8643V48.4727Z" stroke="#00EFFE" stroke-width="0.4"/>
<path d="M23.1553 48.4727H21.6191V50.0088H23.1553V48.4727Z" stroke="#00EFFE" stroke-width="0.4"/>
<path d="M4.72168 48.4727H3.18555V50.0088H4.72168V48.4727Z" stroke="#00EFFE" stroke-width="0.4"/>
<path d="M17.0088 44.5812H15.4727V46.1173H17.0088V44.5812Z" stroke="#00EFFE" stroke-width="0.4"/>
<path d="M13.9385 44.5812H12.4023V46.1173H13.9385V44.5812Z" stroke="#00EFFE" stroke-width="0.4"/>
<path d="M20.083 44.5812H18.5469V46.1173H20.083V44.5812Z" stroke="#00EFFE" stroke-width="0.4"/>
<path d="M10.8643 44.5812H9.32812V46.1173H10.8643V44.5812Z" stroke="#00EFFE" stroke-width="0.4"/>
<path d="M23.1553 44.5812H21.6191V46.1173H23.1553V44.5812Z" stroke="#00EFFE" stroke-width="0.4"/>
<path d="M20.083 40.4847H18.5469V42.0209H20.083V40.4847Z" stroke="#00EFFE" stroke-width="0.4"/>
<path d="M17.0088 40.4847H15.4727V42.0209H17.0088V40.4847Z" stroke="#00EFFE" stroke-width="0.4"/>
<path d="M23.1553 40.4847H21.6191V42.0209H23.1553V40.4847Z" stroke="#00EFFE" stroke-width="0.4"/>
<path d="M48.9111 24.1958H47.375V29.6234H48.9111V24.1958Z" stroke="#00EFFE" stroke-width="0.4"/>
<path d="M12.709 26.1488H8.20312V27.6849H12.709V26.1488Z" stroke="#00EFFE" stroke-width="0.4"/>
</svg>
